<svg width="3168" height="612" viewBox="0 0 3168 612" fill="none" xmlns="http://www.w3.org/2000/svg">
<path d="M2889.27 181.79L2959.19 305.818H2962.52L3033.27 181.79H3162.3L3034.94 394.886L3167.29 607.981H3034.94L2962.52 481.456H2959.19L2886.77 607.981H2755.25L2885.94 394.886L2759.41 181.79H2889.27Z" fill="white"/>
<path d="M2409.54 607.981H2284.68L2425.36 181.79H2583.51L2724.19 607.981H2599.33L2506.1 299.159H2502.77L2409.54 607.981Z" fill="white"/>
<path d="M2059.9 607.981H1895.91V181.79H2058.23C2102.07 181.79 2139.95 190.322 2171.86 207.387C2203.9 224.312 2228.6 248.729 2245.94 280.638C2263.42 312.408 2272.16 350.491 2272.16 394.886C2272.16 439.281 2263.49 477.433 2246.15 509.341C2228.81 541.112 2204.25 565.529 2172.48 582.593C2140.71 599.519 2103.18 607.981 2059.9 607.981ZM2011.62 509.758H2055.74C2076.82 509.758 2094.79 506.359 2109.63 499.561C2124.62 492.763 2135.99 481.04 2143.76 464.392C2151.67 447.743 2155.62 424.575 2155.62 394.886C2155.62 365.197 2151.6 342.028 2143.56 325.38C2135.65 308.732 2123.99 297.009 2108.59 290.211C2093.33 283.413 2074.6 280.014 2052.41 280.014H2011.62V509.758Z" fill="white"/>
<path d="M1540.27 607.981H1415.41L1556.08 181.79H1714.24L1854.92 607.981H1730.06L1636.83 299.159H1633.5L1540.27 607.981Z" fill="white"/>
<path d="M1069.34 275.019V181.79H1576.49V275.019H1311.57V607.981H1197.53V275.019H1069.34Z" fill="white"/>
<path d="M716.461 607.981V181.79H1080.84V275.019H832.165V348.271H1007.8V441.5H832.165V514.752H1022.79V607.981H716.461Z" fill="white"/>
<path d="M0 155.931L146.033 300.709V608.879H2.20736e-10L0 155.931Z" fill="white"/>
<path d="M500.284 301.782L647.433 154.267V611.355H500.284V301.782Z" fill="white"/>
<path d="M212.716 115.371H2.5L322.484 438.097L757.414 0H547.716L321.449 226.064L212.716 115.371Z" fill="url(#paint0_linear_1141_12)"/>
<defs>
<linearGradient id="paint0_linear_1141_12" x1="2.5" y1="219.048" x2="757.414" y2="219.048" gradientUnits="userSpaceOnUse">
<stop offset="0.095" stop-color="#D92B04"/>
<stop offset="0.25" stop-color="#5955D9"/>
<stop offset="0.39" stop-color="#006DFF"/>
<stop offset="0.495" stop-color="#018196"/>
<stop offset="0.645" stop-color="#00B09A"/>
<stop offset="0.775" stop-color="#03983D"/>
<stop offset="1" stop-color="#63FF00"/>
</linearGradient>
</defs>
</svg>
